<mxfile host="65bd71144e">
    <diagram id="1kjQdgfTsHEcZ8Tp4As7" name="Page-1">
        <mxGraphModel dx="1097" dy="467" grid="1" gridSize="10" guides="1" tooltips="1" connect="1" arrows="1" fold="1" page="1" pageScale="1" pageWidth="1100" pageHeight="850" math="0" shadow="0">
            <root>
                <mxCell id="0"/>
                <mxCell id="1" parent="0"/>
                <mxCell id="36" value="" style="endArrow=classic;html=1;fillColor=#0050ef;strokeColor=#001DBC;entryX=0.5;entryY=0;entryDx=0;entryDy=0;" edge="1" parent="1" target="3">
                    <mxGeometry width="50" height="50" relative="1" as="geometry">
                        <mxPoint x="200" y="401" as="sourcePoint"/>
                        <mxPoint x="390" y="571" as="targetPoint"/>
                        <Array as="points">
                            <mxPoint x="200" y="421"/>
                            <mxPoint x="200" y="441"/>
                            <mxPoint x="370" y="441"/>
                            <mxPoint x="560" y="441"/>
                            <mxPoint x="560" y="511"/>
                        </Array>
                    </mxGeometry>
                </mxCell>
                <mxCell id="34" value="" style="endArrow=classic;html=1;exitX=0.88;exitY=1.1;exitDx=0;exitDy=0;fillColor=#0050ef;strokeColor=#001DBC;entryX=0.5;entryY=0;entryDx=0;entryDy=0;exitPerimeter=0;" edge="1" parent="1" source="25" target="5">
                    <mxGeometry width="50" height="50" relative="1" as="geometry">
                        <mxPoint x="595" y="409" as="sourcePoint"/>
                        <mxPoint x="500" y="521" as="targetPoint"/>
                        <Array as="points">
                            <mxPoint x="258" y="421"/>
                            <mxPoint x="600" y="421"/>
                            <mxPoint x="600" y="501"/>
                        </Array>
                    </mxGeometry>
                </mxCell>
                <mxCell id="35" value="" style="endArrow=classic;html=1;fillColor=#0050ef;strokeColor=#001DBC;entryX=0.5;entryY=0;entryDx=0;entryDy=0;" edge="1" parent="1" target="4">
                    <mxGeometry width="50" height="50" relative="1" as="geometry">
                        <mxPoint x="240" y="401" as="sourcePoint"/>
                        <mxPoint x="560" y="581" as="targetPoint"/>
                        <Array as="points">
                            <mxPoint x="240" y="421"/>
                            <mxPoint x="240" y="441"/>
                            <mxPoint x="410" y="441"/>
                            <mxPoint x="580" y="441"/>
                            <mxPoint x="580" y="511"/>
                        </Array>
                    </mxGeometry>
                </mxCell>
                <mxCell id="2" value="" style="rounded=1;whiteSpace=wrap;html=1;strokeWidth=3;strokeColor=#FF3333;" vertex="1" parent="1">
                    <mxGeometry x="250" y="571" width="720" height="60" as="geometry"/>
                </mxCell>
                <mxCell id="3" value="Partition 0" style="rounded=1;whiteSpace=wrap;html=1;" vertex="1" parent="1">
                    <mxGeometry x="250" y="571" width="120" height="60" as="geometry"/>
                </mxCell>
                <mxCell id="4" value="&lt;span&gt;Partition 1&lt;/span&gt;" style="rounded=1;whiteSpace=wrap;html=1;" vertex="1" parent="1">
                    <mxGeometry x="370" y="571" width="120" height="60" as="geometry"/>
                </mxCell>
                <mxCell id="5" value="&lt;span&gt;Partition 2&lt;/span&gt;" style="rounded=1;whiteSpace=wrap;html=1;" vertex="1" parent="1">
                    <mxGeometry x="490" y="571" width="120" height="60" as="geometry"/>
                </mxCell>
                <mxCell id="6" value="&lt;span&gt;Partition 3&lt;/span&gt;" style="rounded=1;whiteSpace=wrap;html=1;" vertex="1" parent="1">
                    <mxGeometry x="610" y="571" width="120" height="60" as="geometry"/>
                </mxCell>
                <mxCell id="7" value="&lt;span&gt;Partition 4&lt;/span&gt;" style="rounded=1;whiteSpace=wrap;html=1;" vertex="1" parent="1">
                    <mxGeometry x="730" y="571" width="120" height="60" as="geometry"/>
                </mxCell>
                <mxCell id="8" value="&lt;span&gt;Partition 5&lt;/span&gt;" style="rounded=1;whiteSpace=wrap;html=1;" vertex="1" parent="1">
                    <mxGeometry x="850" y="571" width="120" height="60" as="geometry"/>
                </mxCell>
                <mxCell id="9" value="" style="endArrow=none;html=1;strokeWidth=3;strokeColor=#FF3333;entryX=1;entryY=0.5;entryDx=0;entryDy=0;" edge="1" parent="1" target="10">
                    <mxGeometry width="50" height="50" relative="1" as="geometry">
                        <mxPoint x="240" y="601" as="sourcePoint"/>
                        <mxPoint x="200" y="601" as="targetPoint"/>
                    </mxGeometry>
                </mxCell>
                <mxCell id="10" value="&lt;font color=&quot;#ff3333&quot;&gt;Topic&lt;/font&gt;" style="text;html=1;strokeColor=none;fillColor=none;align=center;verticalAlign=middle;whiteSpace=wrap;rounded=0;" vertex="1" parent="1">
                    <mxGeometry x="130" y="586" width="60" height="30" as="geometry"/>
                </mxCell>
                <mxCell id="11" value="Consumer" style="shape=umlActor;verticalLabelPosition=bottom;verticalAlign=top;html=1;outlineConnect=0;" vertex="1" parent="1">
                    <mxGeometry x="595" y="219" width="30" height="60" as="geometry"/>
                </mxCell>
                <mxCell id="13" value="" style="endArrow=classic;html=1;entryX=0.5;entryY=0;entryDx=0;entryDy=0;" edge="1" parent="1">
                    <mxGeometry width="50" height="50" relative="1" as="geometry">
                        <mxPoint x="610" y="309" as="sourcePoint"/>
                        <mxPoint x="610" y="359" as="targetPoint"/>
                        <Array as="points"/>
                    </mxGeometry>
                </mxCell>
                <mxCell id="14" value="&lt;b&gt;topic subscription&lt;/b&gt;&amp;nbsp;request, together with a &lt;b&gt;consumer group id&lt;/b&gt;&amp;nbsp;" style="edgeLabel;html=1;align=center;verticalAlign=middle;resizable=0;points=[];" vertex="1" connectable="0" parent="13">
                    <mxGeometry x="-0.6" y="3" relative="1" as="geometry">
                        <mxPoint x="167" y="10" as="offset"/>
                    </mxGeometry>
                </mxCell>
                <mxCell id="23" value="" style="endArrow=classic;html=1;exitX=0.5;exitY=1;exitDx=0;exitDy=0;entryX=0.5;entryY=0;entryDx=0;entryDy=0;" edge="1" parent="1" source="12" target="22">
                    <mxGeometry width="50" height="50" relative="1" as="geometry">
                        <mxPoint x="700" y="551" as="sourcePoint"/>
                        <mxPoint x="750" y="501" as="targetPoint"/>
                    </mxGeometry>
                </mxCell>
                <mxCell id="24" value="Consumer" style="shape=umlActor;verticalLabelPosition=bottom;verticalAlign=top;html=1;outlineConnect=0;" vertex="1" parent="1">
                    <mxGeometry x="205" y="219" width="30" height="60" as="geometry"/>
                </mxCell>
                <mxCell id="29" style="edgeStyle=none;html=1;entryX=0;entryY=0.75;entryDx=0;entryDy=0;exitX=0.5;exitY=1;exitDx=0;exitDy=0;" edge="1" parent="1" source="25" target="22">
                    <mxGeometry relative="1" as="geometry">
                        <Array as="points">
                            <mxPoint x="220" y="476"/>
                        </Array>
                    </mxGeometry>
                </mxCell>
                <mxCell id="25" value="kafka client" style="shape=ext;double=1;rounded=1;whiteSpace=wrap;html=1;" vertex="1" parent="1">
                    <mxGeometry x="170" y="359" width="100" height="40" as="geometry"/>
                </mxCell>
                <mxCell id="26" value="" style="endArrow=classic;html=1;entryX=0.5;entryY=0;entryDx=0;entryDy=0;" edge="1" parent="1">
                    <mxGeometry width="50" height="50" relative="1" as="geometry">
                        <mxPoint x="220" y="309" as="sourcePoint"/>
                        <mxPoint x="220" y="359" as="targetPoint"/>
                        <Array as="points"/>
                    </mxGeometry>
                </mxCell>
                <mxCell id="27" value="&lt;b&gt;topic subscription&lt;/b&gt;&amp;nbsp;request, together with a &lt;b&gt;consumer group id&lt;/b&gt;&amp;nbsp;" style="edgeLabel;html=1;align=center;verticalAlign=middle;resizable=0;points=[];" vertex="1" connectable="0" parent="26">
                    <mxGeometry x="-0.6" y="3" relative="1" as="geometry">
                        <mxPoint x="167" y="10" as="offset"/>
                    </mxGeometry>
                </mxCell>
                <mxCell id="30" value="" style="endArrow=classic;html=1;entryX=0.5;entryY=0;entryDx=0;entryDy=0;fillColor=#008a00;strokeColor=#005700;exitX=0.92;exitY=1;exitDx=0;exitDy=0;exitPerimeter=0;" edge="1" parent="1" source="12" target="8">
                    <mxGeometry width="50" height="50" relative="1" as="geometry">
                        <mxPoint x="660" y="401" as="sourcePoint"/>
                        <mxPoint x="790" y="501" as="targetPoint"/>
                        <Array as="points">
                            <mxPoint x="652" y="461"/>
                        </Array>
                    </mxGeometry>
                </mxCell>
                <mxCell id="31" value="" style="endArrow=classic;html=1;exitX=0.75;exitY=1;exitDx=0;exitDy=0;entryX=0.5;entryY=0;entryDx=0;entryDy=0;fillColor=#008a00;strokeColor=#005700;" edge="1" parent="1" source="12" target="7">
                    <mxGeometry width="50" height="50" relative="1" as="geometry">
                        <mxPoint x="500" y="571" as="sourcePoint"/>
                        <mxPoint x="550" y="521" as="targetPoint"/>
                        <Array as="points">
                            <mxPoint x="635" y="511"/>
                        </Array>
                    </mxGeometry>
                </mxCell>
                <mxCell id="32" value="" style="endArrow=classic;html=1;entryX=0.5;entryY=0;entryDx=0;entryDy=0;fillColor=#008a00;strokeColor=#005700;" edge="1" parent="1" target="6">
                    <mxGeometry width="50" height="50" relative="1" as="geometry">
                        <mxPoint x="624" y="401" as="sourcePoint"/>
                        <mxPoint x="450" y="511" as="targetPoint"/>
                        <Array as="points">
                            <mxPoint x="624" y="521"/>
                        </Array>
                    </mxGeometry>
                </mxCell>
                <mxCell id="22" value="Consumer Group" style="rounded=1;whiteSpace=wrap;html=1;" vertex="1" parent="1">
                    <mxGeometry x="550" y="431" width="120" height="60" as="geometry"/>
                </mxCell>
                <mxCell id="12" value="kafka client" style="shape=ext;double=1;rounded=1;whiteSpace=wrap;html=1;" vertex="1" parent="1">
                    <mxGeometry x="560" y="359" width="100" height="40" as="geometry"/>
                </mxCell>
                <mxCell id="37" value="&lt;b&gt;topic partition&amp;nbsp;&lt;/b&gt;asssignment&amp;nbsp;" style="edgeLabel;html=1;align=center;verticalAlign=middle;resizable=0;points=[];" vertex="1" connectable="0" parent="1">
                    <mxGeometry x="870" y="511" as="geometry"/>
                </mxCell>
            </root>
        </mxGraphModel>
    </diagram>
</mxfile>